<mxfile host="app.diagrams.net" agent="Mozilla/5.0 (Windows NT 10.0; Win64; x64) AppleWebKit/537.36 (KHTML, like Gecko) Chrome/120.0.0.0 Safari/537.36" version="27.0.4">
  <diagram name="第 1 页" id="Q3qxnCJ6AdqXe4STUqq4">
    <mxGraphModel dx="1427" dy="1374" grid="1" gridSize="10" guides="1" tooltips="1" connect="1" arrows="1" fold="1" page="1" pageScale="1" pageWidth="705" pageHeight="515" math="0" shadow="0">
      <root>
        <mxCell id="0" />
        <mxCell id="1" parent="0" />
        <mxCell id="_3uv0b-CWjS05ZcHw2qm-1" value="" style="edgeStyle=orthogonalEdgeStyle;rounded=0;orthogonalLoop=1;jettySize=auto;html=1;fontFamily=Verdana;fontSize=18;" edge="1" parent="1" source="_3uv0b-CWjS05ZcHw2qm-2" target="_3uv0b-CWjS05ZcHw2qm-4">
          <mxGeometry relative="1" as="geometry" />
        </mxCell>
        <mxCell id="_3uv0b-CWjS05ZcHw2qm-2" value="&lt;font style=&quot;vertical-align: inherit;&quot;&gt;&lt;font style=&quot;vertical-align: inherit;&quot;&gt;开始&lt;/font&gt;&lt;/font&gt;" style="rounded=1;whiteSpace=wrap;html=1;fontSize=20;glass=0;strokeWidth=1;shadow=0;fontFamily=宋体;" vertex="1" parent="1">
          <mxGeometry x="405" y="10" width="120" height="40" as="geometry" />
        </mxCell>
        <mxCell id="_3uv0b-CWjS05ZcHw2qm-3" value="" style="edgeStyle=orthogonalEdgeStyle;rounded=0;orthogonalLoop=1;jettySize=auto;html=1;fontFamily=Verdana;fontSize=18;" edge="1" parent="1" source="_3uv0b-CWjS05ZcHw2qm-4" target="_3uv0b-CWjS05ZcHw2qm-6">
          <mxGeometry relative="1" as="geometry" />
        </mxCell>
        <mxCell id="_3uv0b-CWjS05ZcHw2qm-4" value="&lt;font style=&quot;vertical-align: inherit;&quot;&gt;&lt;font style=&quot;vertical-align: inherit;&quot;&gt;初始化基于&lt;/font&gt;&lt;font face=&quot;Times New Roman&quot; style=&quot;vertical-align: inherit;&quot;&gt;NOMA&lt;/font&gt;&lt;font style=&quot;vertical-align: inherit;&quot;&gt;的云边协同车联网系统的参数&lt;/font&gt;&lt;/font&gt;" style="rounded=0;whiteSpace=wrap;html=1;fontFamily=宋体;fontSize=20;" vertex="1" parent="1">
          <mxGeometry x="315" y="80" width="300" height="60" as="geometry" />
        </mxCell>
        <mxCell id="_3uv0b-CWjS05ZcHw2qm-5" value="" style="edgeStyle=orthogonalEdgeStyle;rounded=0;orthogonalLoop=1;jettySize=auto;html=1;fontFamily=Verdana;fontSize=18;" edge="1" parent="1" source="_3uv0b-CWjS05ZcHw2qm-6" target="_3uv0b-CWjS05ZcHw2qm-8">
          <mxGeometry relative="1" as="geometry" />
        </mxCell>
        <mxCell id="_3uv0b-CWjS05ZcHw2qm-6" value="&lt;font style=&quot;vertical-align: inherit;&quot;&gt;&lt;font style=&quot;vertical-align: inherit;&quot;&gt;分离缓存优化问题采用动态规划优化缓存决策&lt;/font&gt;&lt;/font&gt;" style="rounded=0;whiteSpace=wrap;html=1;fontFamily=宋体;fontSize=20;" vertex="1" parent="1">
          <mxGeometry x="315" y="170" width="300" height="60" as="geometry" />
        </mxCell>
        <mxCell id="_3uv0b-CWjS05ZcHw2qm-7" value="" style="edgeStyle=orthogonalEdgeStyle;rounded=0;orthogonalLoop=1;jettySize=auto;html=1;fontFamily=Verdana;fontSize=18;" edge="1" parent="1" source="_3uv0b-CWjS05ZcHw2qm-8" target="_3uv0b-CWjS05ZcHw2qm-10">
          <mxGeometry relative="1" as="geometry" />
        </mxCell>
        <mxCell id="_3uv0b-CWjS05ZcHw2qm-8" value="&lt;font style=&quot;vertical-align: inherit;&quot;&gt;&lt;font style=&quot;vertical-align: inherit;&quot;&gt;基于缓存策略采用&lt;font face=&quot;宋体&quot;&gt;混合策略改进的&lt;/font&gt;&lt;font face=&quot;Times New Roman&quot;&gt;WOA&lt;/font&gt;&lt;font face=&quot;宋体&quot;&gt;算法&lt;/font&gt;优化卸载策略&lt;/font&gt;&lt;/font&gt;" style="rounded=0;whiteSpace=wrap;html=1;fontFamily=宋体;fontSize=20;" vertex="1" parent="1">
          <mxGeometry x="315" y="260" width="300" height="60" as="geometry" />
        </mxCell>
        <mxCell id="_3uv0b-CWjS05ZcHw2qm-9" value="" style="edgeStyle=orthogonalEdgeStyle;rounded=0;orthogonalLoop=1;jettySize=auto;html=1;fontFamily=Verdana;fontSize=18;" edge="1" parent="1" source="_3uv0b-CWjS05ZcHw2qm-10" target="_3uv0b-CWjS05ZcHw2qm-12">
          <mxGeometry relative="1" as="geometry" />
        </mxCell>
        <mxCell id="_3uv0b-CWjS05ZcHw2qm-10" value="&lt;font style=&quot;vertical-align: inherit;&quot;&gt;&lt;font style=&quot;vertical-align: inherit;&quot;&gt;初始化鲸鱼算法中的各个参数&lt;/font&gt;&lt;/font&gt;" style="rounded=0;whiteSpace=wrap;html=1;fontFamily=宋体;fontSize=20;" vertex="1" parent="1">
          <mxGeometry x="325" y="350" width="280" height="60" as="geometry" />
        </mxCell>
        <mxCell id="_3uv0b-CWjS05ZcHw2qm-11" value="" style="edgeStyle=orthogonalEdgeStyle;rounded=0;orthogonalLoop=1;jettySize=auto;html=1;fontFamily=Verdana;fontSize=18;" edge="1" parent="1" source="_3uv0b-CWjS05ZcHw2qm-12" target="_3uv0b-CWjS05ZcHw2qm-14">
          <mxGeometry relative="1" as="geometry" />
        </mxCell>
        <mxCell id="_3uv0b-CWjS05ZcHw2qm-12" value="&lt;font style=&quot;vertical-align: inherit;&quot;&gt;&lt;font style=&quot;vertical-align: inherit;&quot;&gt;利用随机数列生成初始种群&lt;/font&gt;&lt;/font&gt;" style="rounded=0;whiteSpace=wrap;html=1;fontFamily=宋体;fontSize=20;" vertex="1" parent="1">
          <mxGeometry x="325" y="440" width="280" height="60" as="geometry" />
        </mxCell>
        <mxCell id="_3uv0b-CWjS05ZcHw2qm-13" value="" style="edgeStyle=orthogonalEdgeStyle;rounded=0;orthogonalLoop=1;jettySize=auto;html=1;fontFamily=Verdana;fontSize=18;" edge="1" parent="1" source="_3uv0b-CWjS05ZcHw2qm-14" target="_3uv0b-CWjS05ZcHw2qm-16">
          <mxGeometry relative="1" as="geometry" />
        </mxCell>
        <mxCell id="_3uv0b-CWjS05ZcHw2qm-14" value="&lt;font style=&quot;vertical-align: inherit;&quot;&gt;&lt;font style=&quot;vertical-align: inherit;&quot;&gt;对随机初始化鲸鱼的种群使用折射反向学习策略得到反向鲸鱼种群&lt;/font&gt;&lt;/font&gt;" style="rounded=0;whiteSpace=wrap;html=1;fontFamily=宋体;fontSize=20;" vertex="1" parent="1">
          <mxGeometry x="305" y="530" width="320" height="70" as="geometry" />
        </mxCell>
        <mxCell id="_3uv0b-CWjS05ZcHw2qm-45" style="edgeStyle=orthogonalEdgeStyle;rounded=0;orthogonalLoop=1;jettySize=auto;html=1;entryX=0.5;entryY=0;entryDx=0;entryDy=0;" edge="1" parent="1" source="_3uv0b-CWjS05ZcHw2qm-16" target="_3uv0b-CWjS05ZcHw2qm-18">
          <mxGeometry relative="1" as="geometry">
            <Array as="points">
              <mxPoint x="670" y="670" />
              <mxPoint x="670" y="-40" />
              <mxPoint x="1160" y="-40" />
            </Array>
          </mxGeometry>
        </mxCell>
        <mxCell id="_3uv0b-CWjS05ZcHw2qm-16" value="&lt;font style=&quot;vertical-align: inherit;&quot;&gt;&lt;font style=&quot;vertical-align: inherit;&quot;&gt;计算每个鲸鱼个体的适应度值&lt;/font&gt;&lt;/font&gt;" style="rounded=0;whiteSpace=wrap;html=1;fontFamily=宋体;fontSize=20;" vertex="1" parent="1">
          <mxGeometry x="325" y="640" width="280" height="60" as="geometry" />
        </mxCell>
        <mxCell id="_3uv0b-CWjS05ZcHw2qm-17" value="" style="edgeStyle=orthogonalEdgeStyle;rounded=0;orthogonalLoop=1;jettySize=auto;html=1;fontFamily=Verdana;fontSize=18;" edge="1" parent="1" source="_3uv0b-CWjS05ZcHw2qm-18" target="_3uv0b-CWjS05ZcHw2qm-20">
          <mxGeometry relative="1" as="geometry" />
        </mxCell>
        <mxCell id="_3uv0b-CWjS05ZcHw2qm-18" value="&lt;font style=&quot;vertical-align: inherit;&quot;&gt;&lt;font style=&quot;vertical-align: inherit;&quot;&gt;&lt;font style=&quot;vertical-align: inherit;&quot;&gt;&lt;font style=&quot;vertical-align: inherit;&quot;&gt;从随机初始化鲸鱼群体和反向鲸鱼群体中选取个体适应度值较高的前&lt;/font&gt;&lt;/font&gt;&lt;font face=&quot;Times New Roman&quot;&gt;&lt;font style=&quot;vertical-align: inherit;&quot;&gt;&lt;font style=&quot;vertical-align: inherit;&quot;&gt;N&lt;/font&gt;&lt;/font&gt;&lt;/font&gt;&lt;font style=&quot;vertical-align: inherit;&quot;&gt;&lt;font style=&quot;vertical-align: inherit;&quot;&gt;个鲸鱼个体作为算法初始化种群&lt;/font&gt;&lt;/font&gt;&lt;/font&gt;&lt;/font&gt;" style="rounded=0;whiteSpace=wrap;html=1;fontFamily=宋体;fontSize=20;" vertex="1" parent="1">
          <mxGeometry x="930" y="-20" width="460" height="70" as="geometry" />
        </mxCell>
        <mxCell id="_3uv0b-CWjS05ZcHw2qm-19" value="" style="edgeStyle=orthogonalEdgeStyle;rounded=0;orthogonalLoop=1;jettySize=auto;html=1;" edge="1" parent="1" source="_3uv0b-CWjS05ZcHw2qm-20" target="_3uv0b-CWjS05ZcHw2qm-22">
          <mxGeometry relative="1" as="geometry" />
        </mxCell>
        <mxCell id="_3uv0b-CWjS05ZcHw2qm-20" value="&lt;font style=&quot;vertical-align: inherit;&quot;&gt;&lt;font style=&quot;vertical-align: inherit;&quot;&gt;更新鲸鱼种群位置并记录最优鲸鱼个体信息&lt;/font&gt;&lt;/font&gt;" style="rounded=0;whiteSpace=wrap;html=1;fontFamily=宋体;fontSize=20;" vertex="1" parent="1">
          <mxGeometry x="960" y="90" width="400" height="60" as="geometry" />
        </mxCell>
        <mxCell id="_3uv0b-CWjS05ZcHw2qm-21" value="" style="edgeStyle=orthogonalEdgeStyle;rounded=0;orthogonalLoop=1;jettySize=auto;html=1;" edge="1" parent="1" source="_3uv0b-CWjS05ZcHw2qm-22" target="_3uv0b-CWjS05ZcHw2qm-24">
          <mxGeometry relative="1" as="geometry" />
        </mxCell>
        <mxCell id="_3uv0b-CWjS05ZcHw2qm-22" value="&lt;font style=&quot;vertical-align: inherit;&quot;&gt;&lt;font face=&quot;宋体&quot; style=&quot;vertical-align: inherit;&quot;&gt;更新参数&lt;/font&gt;&lt;font face=&quot;Times New Roman&quot; style=&quot;vertical-align: inherit;&quot;&gt;A，P，c，a&lt;/font&gt;&lt;/font&gt;" style="rounded=0;whiteSpace=wrap;html=1;fontFamily=宋体;fontSize=20;" vertex="1" parent="1">
          <mxGeometry x="1040" y="180" width="240" height="60" as="geometry" />
        </mxCell>
        <mxCell id="_3uv0b-CWjS05ZcHw2qm-23" value="" style="edgeStyle=orthogonalEdgeStyle;rounded=0;orthogonalLoop=1;jettySize=auto;html=1;" edge="1" parent="1" source="_3uv0b-CWjS05ZcHw2qm-24" target="_3uv0b-CWjS05ZcHw2qm-26">
          <mxGeometry relative="1" as="geometry" />
        </mxCell>
        <mxCell id="_3uv0b-CWjS05ZcHw2qm-24" value="&lt;font&gt;p&amp;lt;0.5&lt;/font&gt;" style="rhombus;whiteSpace=wrap;html=1;fontFamily=Times New Roman;fontSize=20;" vertex="1" parent="1">
          <mxGeometry x="1090" y="270" width="140" height="60" as="geometry" />
        </mxCell>
        <mxCell id="_3uv0b-CWjS05ZcHw2qm-25" value="" style="edgeStyle=orthogonalEdgeStyle;rounded=0;orthogonalLoop=1;jettySize=auto;html=1;" edge="1" parent="1" source="_3uv0b-CWjS05ZcHw2qm-26" target="_3uv0b-CWjS05ZcHw2qm-28">
          <mxGeometry relative="1" as="geometry" />
        </mxCell>
        <mxCell id="_3uv0b-CWjS05ZcHw2qm-26" value="&lt;font&gt;&lt;span&gt;|A]&amp;lt;1&lt;/span&gt;&lt;/font&gt;" style="rhombus;whiteSpace=wrap;html=1;fontFamily=Times New Roman;fontSize=20;" vertex="1" parent="1">
          <mxGeometry x="1090" y="360" width="140" height="60" as="geometry" />
        </mxCell>
        <mxCell id="_3uv0b-CWjS05ZcHw2qm-27" value="" style="edgeStyle=orthogonalEdgeStyle;rounded=0;orthogonalLoop=1;jettySize=auto;html=1;" edge="1" parent="1" source="_3uv0b-CWjS05ZcHw2qm-28" target="_3uv0b-CWjS05ZcHw2qm-32">
          <mxGeometry relative="1" as="geometry" />
        </mxCell>
        <mxCell id="_3uv0b-CWjS05ZcHw2qm-28" value="&lt;font style=&quot;vertical-align: inherit;&quot;&gt;&lt;font style=&quot;vertical-align: inherit;&quot;&gt;包围猎物,更新位置&lt;/font&gt;&lt;/font&gt;" style="rounded=0;whiteSpace=wrap;html=1;fontFamily=宋体;fontSize=20;" vertex="1" parent="1">
          <mxGeometry x="1020" y="450" width="280" height="60" as="geometry" />
        </mxCell>
        <mxCell id="_3uv0b-CWjS05ZcHw2qm-29" value="&lt;font style=&quot;vertical-align: inherit;&quot;&gt;&lt;font style=&quot;vertical-align: inherit;&quot;&gt;螺旋气泡网攻击,更新位置&lt;/font&gt;&lt;/font&gt;" style="rounded=0;whiteSpace=wrap;html=1;fontFamily=宋体;fontSize=20;" vertex="1" parent="1">
          <mxGeometry x="705" y="360" width="280" height="60" as="geometry" />
        </mxCell>
        <mxCell id="_3uv0b-CWjS05ZcHw2qm-30" value="&lt;font style=&quot;vertical-align: inherit;&quot;&gt;&lt;font style=&quot;vertical-align: inherit;&quot;&gt;搜寻猎物,更新位置&lt;/font&gt;&lt;/font&gt;" style="rounded=0;whiteSpace=wrap;html=1;fontFamily=宋体;fontSize=20;" vertex="1" parent="1">
          <mxGeometry x="1380" y="450" width="290" height="60" as="geometry" />
        </mxCell>
        <mxCell id="_3uv0b-CWjS05ZcHw2qm-31" value="" style="edgeStyle=orthogonalEdgeStyle;rounded=0;orthogonalLoop=1;jettySize=auto;html=1;" edge="1" parent="1" source="_3uv0b-CWjS05ZcHw2qm-32" target="_3uv0b-CWjS05ZcHw2qm-33">
          <mxGeometry relative="1" as="geometry" />
        </mxCell>
        <mxCell id="_3uv0b-CWjS05ZcHw2qm-32" value="&lt;font&gt;&lt;span&gt;最大迭代次数&lt;/span&gt;&lt;/font&gt;" style="rhombus;whiteSpace=wrap;html=1;fontFamily=宋体;fontSize=20;" vertex="1" parent="1">
          <mxGeometry x="1070" y="540" width="180" height="70" as="geometry" />
        </mxCell>
        <mxCell id="_3uv0b-CWjS05ZcHw2qm-33" value="&lt;font style=&quot;vertical-align: inherit;&quot;&gt;&lt;font style=&quot;vertical-align: inherit;&quot;&gt;开始&lt;/font&gt;&lt;/font&gt;" style="rounded=1;whiteSpace=wrap;html=1;fontSize=20;glass=0;strokeWidth=1;shadow=0;fontFamily=宋体;" vertex="1" parent="1">
          <mxGeometry x="1100" y="640" width="120" height="40" as="geometry" />
        </mxCell>
        <mxCell id="_3uv0b-CWjS05ZcHw2qm-34" value="" style="endArrow=classic;html=1;rounded=0;exitX=0;exitY=0.5;exitDx=0;exitDy=0;entryX=0.5;entryY=0;entryDx=0;entryDy=0;" edge="1" parent="1" source="_3uv0b-CWjS05ZcHw2qm-24" target="_3uv0b-CWjS05ZcHw2qm-29">
          <mxGeometry width="50" height="50" relative="1" as="geometry">
            <mxPoint x="750" y="330" as="sourcePoint" />
            <mxPoint x="800" y="280" as="targetPoint" />
            <Array as="points">
              <mxPoint x="845" y="300" />
            </Array>
          </mxGeometry>
        </mxCell>
        <mxCell id="_3uv0b-CWjS05ZcHw2qm-35" value="" style="endArrow=classic;html=1;rounded=0;exitX=0.961;exitY=0.501;exitDx=0;exitDy=0;exitPerimeter=0;entryX=0.5;entryY=0;entryDx=0;entryDy=0;" edge="1" parent="1" source="_3uv0b-CWjS05ZcHw2qm-26" target="_3uv0b-CWjS05ZcHw2qm-30">
          <mxGeometry width="50" height="50" relative="1" as="geometry">
            <mxPoint x="1330" y="410" as="sourcePoint" />
            <mxPoint x="1380" y="360" as="targetPoint" />
            <Array as="points">
              <mxPoint x="1525" y="390" />
            </Array>
          </mxGeometry>
        </mxCell>
        <mxCell id="_3uv0b-CWjS05ZcHw2qm-36" value="" style="endArrow=classic;html=1;rounded=0;exitX=0.5;exitY=1;exitDx=0;exitDy=0;entryX=0;entryY=0.5;entryDx=0;entryDy=0;" edge="1" parent="1" source="_3uv0b-CWjS05ZcHw2qm-29" target="_3uv0b-CWjS05ZcHw2qm-32">
          <mxGeometry width="50" height="50" relative="1" as="geometry">
            <mxPoint x="830" y="590" as="sourcePoint" />
            <mxPoint x="880" y="540" as="targetPoint" />
            <Array as="points">
              <mxPoint x="845" y="575" />
            </Array>
          </mxGeometry>
        </mxCell>
        <mxCell id="_3uv0b-CWjS05ZcHw2qm-37" value="" style="endArrow=classic;html=1;rounded=0;exitX=0.5;exitY=1;exitDx=0;exitDy=0;entryX=1;entryY=0.5;entryDx=0;entryDy=0;" edge="1" parent="1" source="_3uv0b-CWjS05ZcHw2qm-30" target="_3uv0b-CWjS05ZcHw2qm-32">
          <mxGeometry width="50" height="50" relative="1" as="geometry">
            <mxPoint x="1500" y="640" as="sourcePoint" />
            <mxPoint x="1550" y="590" as="targetPoint" />
            <Array as="points">
              <mxPoint x="1525" y="575" />
            </Array>
          </mxGeometry>
        </mxCell>
        <mxCell id="_3uv0b-CWjS05ZcHw2qm-38" value="" style="endArrow=classic;html=1;rounded=0;" edge="1" parent="1">
          <mxGeometry width="50" height="50" relative="1" as="geometry">
            <mxPoint x="1160" y="620" as="sourcePoint" />
            <mxPoint x="1160" y="70" as="targetPoint" />
            <Array as="points">
              <mxPoint x="1690" y="620" />
              <mxPoint x="1690" y="70" />
            </Array>
          </mxGeometry>
        </mxCell>
        <mxCell id="_3uv0b-CWjS05ZcHw2qm-39" value="&lt;font&gt;是&lt;/font&gt;" style="text;html=1;align=center;verticalAlign=middle;whiteSpace=wrap;rounded=0;fontFamily=宋体;fontSize=20;" vertex="1" parent="1">
          <mxGeometry x="1150" y="330" width="60" height="30" as="geometry" />
        </mxCell>
        <mxCell id="_3uv0b-CWjS05ZcHw2qm-40" value="&lt;font&gt;是&lt;/font&gt;" style="text;html=1;align=center;verticalAlign=middle;whiteSpace=wrap;rounded=0;fontFamily=宋体;fontSize=20;" vertex="1" parent="1">
          <mxGeometry x="1150" y="420" width="60" height="30" as="geometry" />
        </mxCell>
        <mxCell id="_3uv0b-CWjS05ZcHw2qm-41" value="&lt;font&gt;是&lt;/font&gt;" style="text;html=1;align=center;verticalAlign=middle;whiteSpace=wrap;rounded=0;fontFamily=宋体;fontSize=20;" vertex="1" parent="1">
          <mxGeometry x="1110" y="610" width="60" height="30" as="geometry" />
        </mxCell>
        <mxCell id="_3uv0b-CWjS05ZcHw2qm-42" value="&lt;font&gt;否&lt;/font&gt;" style="text;html=1;align=center;verticalAlign=middle;whiteSpace=wrap;rounded=0;fontFamily=宋体;fontSize=20;" vertex="1" parent="1">
          <mxGeometry x="970" y="300" width="60" height="30" as="geometry" />
        </mxCell>
        <mxCell id="_3uv0b-CWjS05ZcHw2qm-43" value="&lt;font&gt;否&lt;/font&gt;" style="text;html=1;align=center;verticalAlign=middle;whiteSpace=wrap;rounded=0;fontFamily=宋体;fontSize=20;" vertex="1" parent="1">
          <mxGeometry x="1270" y="390" width="60" height="30" as="geometry" />
        </mxCell>
        <mxCell id="_3uv0b-CWjS05ZcHw2qm-44" value="&lt;font&gt;否&lt;/font&gt;" style="text;html=1;align=center;verticalAlign=middle;whiteSpace=wrap;rounded=0;fontFamily=宋体;fontSize=20;" vertex="1" parent="1">
          <mxGeometry x="1610" y="590" width="60" height="30" as="geometry" />
        </mxCell>
      </root>
    </mxGraphModel>
  </diagram>
</mxfile>
